<mxfile host="Electron" modified="2023-10-18T09:11:37.304Z" agent="Mozilla/5.0 (Windows NT 10.0; Win64; x64) AppleWebKit/537.36 (KHTML, like Gecko) draw.io/21.6.8 Chrome/114.0.5735.289 Electron/25.5.0 Safari/537.36" etag="iZItfG1lHDPC5FQxCFxo" version="21.6.8" type="device">
  <diagram name="Page-1" id="PGW8C-4R_I-An5VIq9o4">
    <mxGraphModel dx="942" dy="558" grid="1" gridSize="10" guides="1" tooltips="1" connect="1" arrows="1" fold="1" page="1" pageScale="1" pageWidth="850" pageHeight="1100" math="0" shadow="0">
      <root>
        <mxCell id="0" />
        <mxCell id="1" parent="0" />
        <mxCell id="xAsPM_6dydhFdYysS4Um-6" value="«component»&lt;br&gt;&lt;b&gt;CPU_Core&lt;/b&gt;" style="html=1;dropTarget=0;whiteSpace=wrap;rounded=1;fontFamily=Computer Modern;shadow=1;" vertex="1" parent="1">
          <mxGeometry x="350" y="210" width="140" height="60" as="geometry" />
        </mxCell>
        <mxCell id="xAsPM_6dydhFdYysS4Um-7" value="" style="shape=module;jettyWidth=8;jettyHeight=4;fontFamily=Computer Modern;" vertex="1" parent="xAsPM_6dydhFdYysS4Um-6">
          <mxGeometry x="1" width="20" height="20" relative="1" as="geometry">
            <mxPoint x="-27" y="7" as="offset" />
          </mxGeometry>
        </mxCell>
        <mxCell id="xAsPM_6dydhFdYysS4Um-8" value="«component»&lt;br&gt;&lt;b&gt;CPU_Context&lt;/b&gt;" style="html=1;dropTarget=0;whiteSpace=wrap;rounded=1;fontFamily=Computer Modern;shadow=1;" vertex="1" parent="1">
          <mxGeometry x="500" y="210" width="140" height="60" as="geometry" />
        </mxCell>
        <mxCell id="xAsPM_6dydhFdYysS4Um-9" value="" style="shape=module;jettyWidth=8;jettyHeight=4;fontFamily=Computer Modern;" vertex="1" parent="xAsPM_6dydhFdYysS4Um-8">
          <mxGeometry x="1" width="20" height="20" relative="1" as="geometry">
            <mxPoint x="-27" y="7" as="offset" />
          </mxGeometry>
        </mxCell>
        <mxCell id="xAsPM_6dydhFdYysS4Um-10" value="«component»&lt;br&gt;&lt;b&gt;ALU&lt;/b&gt;" style="html=1;dropTarget=0;whiteSpace=wrap;rounded=1;fontFamily=Computer Modern;shadow=1;" vertex="1" parent="1">
          <mxGeometry x="350" y="290" width="140" height="60" as="geometry" />
        </mxCell>
        <mxCell id="xAsPM_6dydhFdYysS4Um-11" value="" style="shape=module;jettyWidth=8;jettyHeight=4;fontFamily=Computer Modern;" vertex="1" parent="xAsPM_6dydhFdYysS4Um-10">
          <mxGeometry x="1" width="20" height="20" relative="1" as="geometry">
            <mxPoint x="-27" y="7" as="offset" />
          </mxGeometry>
        </mxCell>
        <mxCell id="xAsPM_6dydhFdYysS4Um-12" value="«component»&lt;br&gt;&lt;b&gt;MMU&lt;/b&gt;" style="html=1;dropTarget=0;whiteSpace=wrap;rounded=1;fontFamily=Computer Modern;shadow=1;" vertex="1" parent="1">
          <mxGeometry x="500" y="290" width="140" height="60" as="geometry" />
        </mxCell>
        <mxCell id="xAsPM_6dydhFdYysS4Um-13" value="" style="shape=module;jettyWidth=8;jettyHeight=4;fontFamily=Computer Modern;" vertex="1" parent="xAsPM_6dydhFdYysS4Um-12">
          <mxGeometry x="1" width="20" height="20" relative="1" as="geometry">
            <mxPoint x="-27" y="7" as="offset" />
          </mxGeometry>
        </mxCell>
        <mxCell id="xAsPM_6dydhFdYysS4Um-14" value="«component»&lt;br&gt;&lt;b&gt;ISA_Decoder&lt;/b&gt;" style="html=1;dropTarget=0;whiteSpace=wrap;rounded=1;fontFamily=Computer Modern;shadow=1;" vertex="1" parent="1">
          <mxGeometry x="200" y="210" width="140" height="60" as="geometry" />
        </mxCell>
        <mxCell id="xAsPM_6dydhFdYysS4Um-15" value="" style="shape=module;jettyWidth=8;jettyHeight=4;fontFamily=Computer Modern;" vertex="1" parent="xAsPM_6dydhFdYysS4Um-14">
          <mxGeometry x="1" width="20" height="20" relative="1" as="geometry">
            <mxPoint x="-27" y="7" as="offset" />
          </mxGeometry>
        </mxCell>
        <mxCell id="xAsPM_6dydhFdYysS4Um-16" value="«component»&lt;br&gt;&lt;b&gt;MAC&lt;/b&gt;" style="html=1;dropTarget=0;whiteSpace=wrap;rounded=1;fontFamily=Computer Modern;shadow=1;" vertex="1" parent="1">
          <mxGeometry x="200" y="290" width="140" height="60" as="geometry" />
        </mxCell>
        <mxCell id="xAsPM_6dydhFdYysS4Um-17" value="" style="shape=module;jettyWidth=8;jettyHeight=4;fontFamily=Computer Modern;" vertex="1" parent="xAsPM_6dydhFdYysS4Um-16">
          <mxGeometry x="1" width="20" height="20" relative="1" as="geometry">
            <mxPoint x="-27" y="7" as="offset" />
          </mxGeometry>
        </mxCell>
        <mxCell id="xAsPM_6dydhFdYysS4Um-21" value="ARM1176JZF_S" style="shape=umlFrame;whiteSpace=wrap;html=1;pointerEvents=0;width=110;height=30;fontFamily=Computer Modern;" vertex="1" parent="1">
          <mxGeometry x="40" y="190" width="610" height="180" as="geometry" />
        </mxCell>
        <mxCell id="xAsPM_6dydhFdYysS4Um-22" value="«component»&lt;br&gt;&lt;b&gt;Exceptions&lt;/b&gt;" style="html=1;dropTarget=0;whiteSpace=wrap;rounded=1;fontFamily=Computer Modern;shadow=1;" vertex="1" parent="1">
          <mxGeometry x="50" y="290" width="140" height="60" as="geometry" />
        </mxCell>
        <mxCell id="xAsPM_6dydhFdYysS4Um-23" value="" style="shape=module;jettyWidth=8;jettyHeight=4;fontFamily=Computer Modern;" vertex="1" parent="xAsPM_6dydhFdYysS4Um-22">
          <mxGeometry x="1" width="20" height="20" relative="1" as="geometry">
            <mxPoint x="-27" y="7" as="offset" />
          </mxGeometry>
        </mxCell>
      </root>
    </mxGraphModel>
  </diagram>
</mxfile>
